<svg xmlns="http://www.w3.org/2000/svg" viewBox="0 0 512 512">
  <defs>
    <linearGradient id="grad" x1="0%" y1="0%" x2="100%" y2="100%">
      <stop offset="0%" style="stop-color:#4F46E5;stop-opacity:1" />
      <stop offset="100%" style="stop-color:#7C3AED;stop-opacity:1" />
    </linearGradient>
  </defs>
  <rect width="512" height="512" rx="115" fill="url(#grad)"/>
  <g fill="white">
    <!-- Map pin icon -->
    <path d="M256 64c-70.7 0-128 57.3-128 128 0 70.7 103.6 207.6 120.6 228.8 4.4 5.5 11.8 8.3 19.4 8.3s15-2.8 19.4-8.3C304.4 399.6 384 262.7 384 192c0-70.7-57.3-128-128-128zm0 181.3c-29.4 0-53.3-23.9-53.3-53.3s23.9-53.3 53.3-53.3 53.3 23.9 53.3 53.3-23.9 53.3-53.3 53.3z"/>
    <!-- Airplane -->
    <path d="M480 192H365.7l-75.4-113c-7.3-11-19.5-17.5-32.8-17.5s-25.5 6.5-32.8 17.5l-75.4 113H32c-17.7 0-32 14.3-32 32s14.3 32 32 32h96l-64 128c-5.9 11.9-1.1 26.3 10.7 32.2 3.5 1.7 7.2 2.5 10.7 2.5 8.8 0 17.3-4.9 21.5-13.3L176 288h64v96c0 17.7 14.3 32 32 32s32-14.3 32-32v-96h64l69.1 138.2c4.2 8.4 12.7 13.3 21.5 13.3 3.5 0 7.2-.8 10.7-2.5 11.9-5.9 16.7-20.3 10.7-32.2l-64-128h96c17.7 0 32-14.3 32-32s-14.3-32-32-32z" transform="translate(0, -10) scale(0.3)" style="opacity:0.9"/>
  </g>
</svg>
